<svg width="11" height="11" viewBox="0 0 11 11" fill="none" xmlns="http://www.w3.org/2000/svg">
<path d="M5.50061 4.72697e-07C2.46151 -0.00126186 0 2.52594 0 5.64517C0 8.11177 1.53983 10.2085 3.68428 10.9785C3.97308 11.053 3.92884 10.8422 3.92884 10.6983V9.71999C2.2612 9.9207 2.19361 8.78712 2.08178 8.59777C1.85566 8.2014 1.32108 8.10041 1.48084 7.91106C1.86057 7.71035 2.24768 7.96156 2.69624 8.64196C3.02067 9.13553 3.65356 9.05221 3.9743 8.97016C4.04435 8.67351 4.19428 8.40842 4.40074 8.20266C2.67289 7.88455 1.95274 6.80147 1.95274 5.51389C1.95274 4.88903 2.15306 4.31467 2.54631 3.85139C2.29561 3.08768 2.56966 2.43378 2.60652 2.33659C3.32052 2.27094 4.06279 2.86172 4.12055 2.90842C4.52609 2.79608 4.98939 2.73675 5.50799 2.73675C6.02905 2.73675 6.49358 2.7986 6.9028 2.91221C7.04167 2.80365 7.72986 2.29619 8.39348 2.35804C8.42911 2.45524 8.69702 3.09399 8.46107 3.8476C8.85923 4.31214 9.06201 4.89155 9.06201 5.51767C9.06201 6.80778 8.33695 7.89213 6.60418 8.20519C6.75259 8.35511 6.87044 8.53392 6.95083 8.73115C7.03122 8.92838 7.07255 9.14009 7.07239 9.35391V10.774C7.08223 10.8877 7.07239 11 7.25673 11C9.43314 10.2464 11 8.1345 11 5.64643C11 2.52594 8.53726 4.72697e-07 5.50061 4.72697e-07Z" fill="#455A64"/>
</svg>
